<mxfile host="app.diagrams.net" agent="Mozilla/5.0 (Windows NT 10.0; Win64; x64; rv:138.0) Gecko/20100101 Firefox/138.0" version="26.2.8">
  <diagram name="Seite-1" id="U8NcUoW2_Qa0tdjfITIf">
    <mxGraphModel dx="1334" dy="722" grid="1" gridSize="10" guides="1" tooltips="1" connect="1" arrows="1" fold="1" page="1" pageScale="1" pageWidth="827" pageHeight="1169" math="0" shadow="0">
      <root>
        <mxCell id="0" />
        <mxCell id="1" parent="0" />
        <mxCell id="3BKQBrjDXL64x6oOyKod-1" value="" style="endArrow=classic;html=1;rounded=0;strokeWidth=2;" edge="1" parent="1">
          <mxGeometry width="50" height="50" relative="1" as="geometry">
            <mxPoint x="51.515151515151516" y="334.7368421052632" as="sourcePoint" />
            <mxPoint x="51.515151515151516" y="40" as="targetPoint" />
          </mxGeometry>
        </mxCell>
        <mxCell id="3BKQBrjDXL64x6oOyKod-2" value="" style="endArrow=classic;html=1;rounded=0;strokeWidth=2;" edge="1" parent="1">
          <mxGeometry width="50" height="50" relative="1" as="geometry">
            <mxPoint x="51.515151515151516" y="334.7368421052632" as="sourcePoint" />
            <mxPoint x="382.4242424242425" y="334.7368421052632" as="targetPoint" />
          </mxGeometry>
        </mxCell>
        <mxCell id="3BKQBrjDXL64x6oOyKod-3" value="" style="rounded=0;whiteSpace=wrap;html=1;fillColor=#647687;fontColor=#ffffff;strokeColor=#314354;" vertex="1" parent="1">
          <mxGeometry x="67.27272727272728" y="76.84210526315789" width="15.75757575757576" height="257.89473684210526" as="geometry" />
        </mxCell>
        <mxCell id="3BKQBrjDXL64x6oOyKod-4" value="" style="rounded=0;whiteSpace=wrap;html=1;fillColor=#647687;fontColor=#ffffff;strokeColor=#314354;" vertex="1" parent="1">
          <mxGeometry x="98.7878787878788" y="150.5263157894737" width="15.75757575757576" height="184.2105263157895" as="geometry" />
        </mxCell>
        <mxCell id="3BKQBrjDXL64x6oOyKod-5" value="" style="rounded=0;whiteSpace=wrap;html=1;fillColor=#647687;fontColor=#ffffff;strokeColor=#314354;" vertex="1" parent="1">
          <mxGeometry x="130.3030303030303" y="113.6842105263158" width="15.75757575757576" height="221.05263157894737" as="geometry" />
        </mxCell>
        <mxCell id="3BKQBrjDXL64x6oOyKod-7" value="" style="rounded=0;whiteSpace=wrap;html=1;fillColor=#647687;fontColor=#ffffff;strokeColor=#314354;" vertex="1" parent="1">
          <mxGeometry x="161.81818181818184" y="76.84210526315789" width="15.75757575757576" height="257.89473684210526" as="geometry" />
        </mxCell>
        <mxCell id="3BKQBrjDXL64x6oOyKod-8" value="" style="rounded=0;whiteSpace=wrap;html=1;fillColor=#647687;fontColor=#ffffff;strokeColor=#314354;" vertex="1" parent="1">
          <mxGeometry x="193.33333333333334" y="150.5263157894737" width="15.75757575757576" height="184.2105263157895" as="geometry" />
        </mxCell>
        <mxCell id="3BKQBrjDXL64x6oOyKod-9" value="" style="rounded=0;whiteSpace=wrap;html=1;fillColor=#647687;fontColor=#ffffff;strokeColor=#314354;" vertex="1" parent="1">
          <mxGeometry x="224.84848484848484" y="113.6842105263158" width="15.75757575757576" height="221.05263157894737" as="geometry" />
        </mxCell>
        <mxCell id="3BKQBrjDXL64x6oOyKod-11" value="" style="rounded=0;whiteSpace=wrap;html=1;fillColor=#647687;fontColor=#ffffff;strokeColor=#314354;" vertex="1" parent="1">
          <mxGeometry x="256.3636363636364" y="76.84210526315789" width="15.75757575757576" height="257.89473684210526" as="geometry" />
        </mxCell>
        <mxCell id="3BKQBrjDXL64x6oOyKod-12" value="" style="rounded=0;whiteSpace=wrap;html=1;fillColor=#647687;fontColor=#ffffff;strokeColor=#314354;" vertex="1" parent="1">
          <mxGeometry x="287.8787878787879" y="150.5263157894737" width="15.75757575757576" height="184.2105263157895" as="geometry" />
        </mxCell>
        <mxCell id="3BKQBrjDXL64x6oOyKod-13" value="" style="rounded=0;whiteSpace=wrap;html=1;fillColor=#647687;fontColor=#ffffff;strokeColor=#314354;" vertex="1" parent="1">
          <mxGeometry x="319.39393939393943" y="113.6842105263158" width="15.75757575757576" height="221.05263157894737" as="geometry" />
        </mxCell>
        <mxCell id="3BKQBrjDXL64x6oOyKod-14" value="" style="endArrow=none;html=1;rounded=0;entryX=0;entryY=0;entryDx=0;entryDy=0;fillColor=#647687;strokeColor=light-dark(#808080, #a9b8c7);" edge="1" parent="1" target="3BKQBrjDXL64x6oOyKod-7">
          <mxGeometry width="50" height="50" relative="1" as="geometry">
            <mxPoint x="83.03030303030303" y="76.84210526315789" as="sourcePoint" />
            <mxPoint x="161.81818181818184" y="-15.263157894736842" as="targetPoint" />
          </mxGeometry>
        </mxCell>
        <mxCell id="3BKQBrjDXL64x6oOyKod-15" value="" style="endArrow=none;html=1;rounded=0;entryX=0;entryY=0;entryDx=0;entryDy=0;fillColor=#647687;strokeColor=light-dark(#808080, #a9b8c7);" edge="1" parent="1">
          <mxGeometry width="50" height="50" relative="1" as="geometry">
            <mxPoint x="177.5757575757576" y="76.41842105263157" as="sourcePoint" />
            <mxPoint x="256.3636363636364" y="76.41842105263157" as="targetPoint" />
          </mxGeometry>
        </mxCell>
        <mxCell id="3BKQBrjDXL64x6oOyKod-17" value="" style="endArrow=none;dashed=1;html=1;rounded=0;fillColor=#647687;strokeColor=light-dark(#808080, #a9b8c7);" edge="1" parent="1">
          <mxGeometry width="50" height="50" relative="1" as="geometry">
            <mxPoint x="272.1212121212121" y="76.41842105263157" as="sourcePoint" />
            <mxPoint x="350.90909090909093" y="76.41842105263157" as="targetPoint" />
          </mxGeometry>
        </mxCell>
        <mxCell id="3BKQBrjDXL64x6oOyKod-18" value="" style="endArrow=none;html=1;rounded=0;entryX=1;entryY=0;entryDx=0;entryDy=0;exitX=0;exitY=0;exitDx=0;exitDy=0;fillColor=#647687;strokeColor=light-dark(#808080, #a9b8c7);" edge="1" parent="1" source="3BKQBrjDXL64x6oOyKod-4" target="3BKQBrjDXL64x6oOyKod-3">
          <mxGeometry width="50" height="50" relative="1" as="geometry">
            <mxPoint x="161.81818181818184" y="224.2105263157895" as="sourcePoint" />
            <mxPoint x="240.60606060606062" y="132.10526315789474" as="targetPoint" />
          </mxGeometry>
        </mxCell>
        <mxCell id="3BKQBrjDXL64x6oOyKod-19" value="" style="endArrow=none;html=1;rounded=0;entryX=1;entryY=0;entryDx=0;entryDy=0;exitX=0;exitY=0;exitDx=0;exitDy=0;fillColor=#647687;strokeColor=light-dark(#808080, #a9b8c7);" edge="1" parent="1">
          <mxGeometry width="50" height="50" relative="1" as="geometry">
            <mxPoint x="193.33333333333334" y="150.5263157894737" as="sourcePoint" />
            <mxPoint x="177.5757575757576" y="76.84210526315789" as="targetPoint" />
          </mxGeometry>
        </mxCell>
        <mxCell id="3BKQBrjDXL64x6oOyKod-20" value="" style="endArrow=none;html=1;rounded=0;entryX=1;entryY=0;entryDx=0;entryDy=0;exitX=0;exitY=0;exitDx=0;exitDy=0;fillColor=#647687;strokeColor=light-dark(#808080, #a9b8c7);" edge="1" parent="1">
          <mxGeometry width="50" height="50" relative="1" as="geometry">
            <mxPoint x="287.8787878787879" y="150.5263157894737" as="sourcePoint" />
            <mxPoint x="272.1212121212121" y="76.84210526315789" as="targetPoint" />
          </mxGeometry>
        </mxCell>
        <mxCell id="3BKQBrjDXL64x6oOyKod-21" value="" style="endArrow=none;html=1;rounded=0;entryX=0;entryY=0;entryDx=0;entryDy=0;exitX=1;exitY=0;exitDx=0;exitDy=0;fillColor=#647687;strokeColor=light-dark(#808080, #a9b8c7);" edge="1" parent="1" source="3BKQBrjDXL64x6oOyKod-4" target="3BKQBrjDXL64x6oOyKod-5">
          <mxGeometry width="50" height="50" relative="1" as="geometry">
            <mxPoint x="161.81818181818184" y="224.2105263157895" as="sourcePoint" />
            <mxPoint x="240.60606060606062" y="132.10526315789474" as="targetPoint" />
          </mxGeometry>
        </mxCell>
        <mxCell id="3BKQBrjDXL64x6oOyKod-22" value="" style="endArrow=none;html=1;rounded=0;entryX=0;entryY=0;entryDx=0;entryDy=0;exitX=1;exitY=0;exitDx=0;exitDy=0;fillColor=#647687;strokeColor=light-dark(#808080, #a9b8c7);" edge="1" parent="1" target="3BKQBrjDXL64x6oOyKod-9">
          <mxGeometry width="50" height="50" relative="1" as="geometry">
            <mxPoint x="209.09090909090912" y="150.5263157894737" as="sourcePoint" />
            <mxPoint x="224.84848484848484" y="95.26315789473685" as="targetPoint" />
          </mxGeometry>
        </mxCell>
        <mxCell id="3BKQBrjDXL64x6oOyKod-23" value="" style="endArrow=none;html=1;rounded=0;entryX=0;entryY=0;entryDx=0;entryDy=0;exitX=1;exitY=0;exitDx=0;exitDy=0;fillColor=#647687;strokeColor=light-dark(#808080, #a9b8c7);" edge="1" parent="1" target="3BKQBrjDXL64x6oOyKod-13">
          <mxGeometry width="50" height="50" relative="1" as="geometry">
            <mxPoint x="303.6363636363637" y="150.5263157894737" as="sourcePoint" />
            <mxPoint x="319.39393939393943" y="95.26315789473685" as="targetPoint" />
          </mxGeometry>
        </mxCell>
        <mxCell id="3BKQBrjDXL64x6oOyKod-25" value="" style="endArrow=none;html=1;rounded=0;entryX=0;entryY=0;entryDx=0;entryDy=0;fillColor=#647687;strokeColor=light-dark(#808080, #a9b8c7);exitX=1;exitY=0;exitDx=0;exitDy=0;" edge="1" parent="1" source="3BKQBrjDXL64x6oOyKod-5" target="3BKQBrjDXL64x6oOyKod-7">
          <mxGeometry width="50" height="50" relative="1" as="geometry">
            <mxPoint x="146.06060606060606" y="95.26315789473685" as="sourcePoint" />
            <mxPoint x="193.33333333333334" y="58.421052631578945" as="targetPoint" />
          </mxGeometry>
        </mxCell>
        <mxCell id="3BKQBrjDXL64x6oOyKod-26" value="" style="endArrow=none;html=1;rounded=0;entryX=0;entryY=0;entryDx=0;entryDy=0;fillColor=#647687;strokeColor=light-dark(#808080, #a9b8c7);exitX=1;exitY=0;exitDx=0;exitDy=0;" edge="1" parent="1" source="3BKQBrjDXL64x6oOyKod-9">
          <mxGeometry width="50" height="50" relative="1" as="geometry">
            <mxPoint x="240.60606060606062" y="110" as="sourcePoint" />
            <mxPoint x="256.3636363636364" y="76.84210526315789" as="targetPoint" />
          </mxGeometry>
        </mxCell>
        <mxCell id="3BKQBrjDXL64x6oOyKod-27" value="" style="endArrow=none;dashed=1;html=1;rounded=0;fillColor=#647687;strokeColor=light-dark(#808080, #a9b8c7);exitX=1;exitY=0;exitDx=0;exitDy=0;" edge="1" parent="1" source="3BKQBrjDXL64x6oOyKod-13">
          <mxGeometry width="50" height="50" relative="1" as="geometry">
            <mxPoint x="335.1515151515152" y="95.26315789473685" as="sourcePoint" />
            <mxPoint x="350.90909090909093" y="76.84210526315789" as="targetPoint" />
          </mxGeometry>
        </mxCell>
        <mxCell id="3BKQBrjDXL64x6oOyKod-28" value="" style="endArrow=none;html=1;rounded=0;entryX=0;entryY=0;entryDx=0;entryDy=0;exitX=1;exitY=0;exitDx=0;exitDy=0;fillColor=#647687;strokeColor=light-dark(#808080, #a9b8c7);" edge="1" parent="1" source="3BKQBrjDXL64x6oOyKod-3" target="3BKQBrjDXL64x6oOyKod-5">
          <mxGeometry width="50" height="50" relative="1" as="geometry">
            <mxPoint x="83.03030303030303" y="58.421052631578945" as="sourcePoint" />
            <mxPoint x="161.81818181818184" y="-33.684210526315795" as="targetPoint" />
          </mxGeometry>
        </mxCell>
        <mxCell id="3BKQBrjDXL64x6oOyKod-29" value="" style="endArrow=none;html=1;rounded=0;exitX=1;exitY=0;exitDx=0;exitDy=0;fillColor=#647687;strokeColor=light-dark(#808080, #a9b8c7);" edge="1" parent="1">
          <mxGeometry width="50" height="50" relative="1" as="geometry">
            <mxPoint x="177.5757575757576" y="76.84210526315789" as="sourcePoint" />
            <mxPoint x="224.84848484848484" y="113.6842105263158" as="targetPoint" />
          </mxGeometry>
        </mxCell>
        <mxCell id="3BKQBrjDXL64x6oOyKod-30" value="" style="endArrow=none;html=1;rounded=0;entryX=0;entryY=0;entryDx=0;entryDy=0;exitX=1;exitY=0;exitDx=0;exitDy=0;fillColor=#647687;strokeColor=light-dark(#808080, #a9b8c7);" edge="1" parent="1" target="3BKQBrjDXL64x6oOyKod-13">
          <mxGeometry width="50" height="50" relative="1" as="geometry">
            <mxPoint x="272.1212121212121" y="76.84210526315789" as="sourcePoint" />
            <mxPoint x="319.39393939393943" y="95.26315789473685" as="targetPoint" />
          </mxGeometry>
        </mxCell>
        <mxCell id="3BKQBrjDXL64x6oOyKod-31" value="" style="endArrow=none;html=1;rounded=0;strokeWidth=2;" edge="1" parent="1">
          <mxGeometry width="50" height="50" relative="1" as="geometry">
            <mxPoint x="20" y="76.84210526315789" as="sourcePoint" />
            <mxPoint x="51.515151515151516" y="76.69473684210527" as="targetPoint" />
          </mxGeometry>
        </mxCell>
        <mxCell id="3BKQBrjDXL64x6oOyKod-97" value="&lt;font style=&quot;font-size: 16px;&quot;&gt;0.7&lt;/font&gt;" style="edgeLabel;html=1;align=center;verticalAlign=middle;resizable=0;points=[];" vertex="1" connectable="0" parent="3BKQBrjDXL64x6oOyKod-31">
          <mxGeometry x="-0.5297" relative="1" as="geometry">
            <mxPoint x="-5" as="offset" />
          </mxGeometry>
        </mxCell>
        <mxCell id="3BKQBrjDXL64x6oOyKod-34" value="" style="endArrow=none;html=1;rounded=0;strokeWidth=2;" edge="1" parent="1">
          <mxGeometry width="50" height="50" relative="1" as="geometry">
            <mxPoint x="20" y="150.5263157894737" as="sourcePoint" />
            <mxPoint x="51.515151515151516" y="150.48947368421054" as="targetPoint" />
          </mxGeometry>
        </mxCell>
        <mxCell id="3BKQBrjDXL64x6oOyKod-95" value="&lt;font style=&quot;font-size: 16px;&quot;&gt;0.5&lt;/font&gt;" style="edgeLabel;html=1;align=center;verticalAlign=middle;resizable=0;points=[];" vertex="1" connectable="0" parent="3BKQBrjDXL64x6oOyKod-34">
          <mxGeometry x="-0.5297" relative="1" as="geometry">
            <mxPoint x="-5" as="offset" />
          </mxGeometry>
        </mxCell>
        <mxCell id="3BKQBrjDXL64x6oOyKod-36" value="" style="endArrow=none;html=1;rounded=0;strokeWidth=2;" edge="1" parent="1">
          <mxGeometry width="50" height="50" relative="1" as="geometry">
            <mxPoint x="20" y="113.6842105263158" as="sourcePoint" />
            <mxPoint x="51.515151515151516" y="113.88684210526317" as="targetPoint" />
          </mxGeometry>
        </mxCell>
        <mxCell id="3BKQBrjDXL64x6oOyKod-96" value="&lt;font style=&quot;font-size: 16px;&quot;&gt;0.6&lt;/font&gt;" style="edgeLabel;html=1;align=center;verticalAlign=middle;resizable=0;points=[];" vertex="1" connectable="0" parent="3BKQBrjDXL64x6oOyKod-36">
          <mxGeometry x="-0.5298" relative="1" as="geometry">
            <mxPoint x="-5" as="offset" />
          </mxGeometry>
        </mxCell>
        <mxCell id="3BKQBrjDXL64x6oOyKod-41" value="" style="endArrow=none;html=1;rounded=0;strokeWidth=2;" edge="1" parent="1">
          <mxGeometry width="50" height="50" relative="1" as="geometry">
            <mxPoint x="20" y="187.3684210526316" as="sourcePoint" />
            <mxPoint x="51.515151515151516" y="187.33157894736843" as="targetPoint" />
          </mxGeometry>
        </mxCell>
        <mxCell id="3BKQBrjDXL64x6oOyKod-94" value="&lt;font style=&quot;font-size: 16px;&quot;&gt;0.4&lt;/font&gt;" style="edgeLabel;html=1;align=center;verticalAlign=middle;resizable=0;points=[];" vertex="1" connectable="0" parent="3BKQBrjDXL64x6oOyKod-41">
          <mxGeometry x="-0.5297" relative="1" as="geometry">
            <mxPoint x="-5" as="offset" />
          </mxGeometry>
        </mxCell>
        <mxCell id="3BKQBrjDXL64x6oOyKod-43" value="" style="endArrow=none;html=1;rounded=0;strokeWidth=2;" edge="1" parent="1">
          <mxGeometry width="50" height="50" relative="1" as="geometry">
            <mxPoint x="20" y="224.2105263157895" as="sourcePoint" />
            <mxPoint x="51.515151515151516" y="224.3026315789474" as="targetPoint" />
          </mxGeometry>
        </mxCell>
        <mxCell id="3BKQBrjDXL64x6oOyKod-93" value="&lt;font style=&quot;font-size: 16px;&quot;&gt;0.3&lt;/font&gt;" style="edgeLabel;html=1;align=center;verticalAlign=middle;resizable=0;points=[];" vertex="1" connectable="0" parent="3BKQBrjDXL64x6oOyKod-43">
          <mxGeometry x="-0.5298" relative="1" as="geometry">
            <mxPoint x="-5" as="offset" />
          </mxGeometry>
        </mxCell>
        <mxCell id="3BKQBrjDXL64x6oOyKod-45" value="" style="endArrow=none;html=1;rounded=0;strokeWidth=2;" edge="1" parent="1">
          <mxGeometry width="50" height="50" relative="1" as="geometry">
            <mxPoint x="20" y="261.0526315789474" as="sourcePoint" />
            <mxPoint x="51.515151515151516" y="261.1447368421053" as="targetPoint" />
          </mxGeometry>
        </mxCell>
        <mxCell id="3BKQBrjDXL64x6oOyKod-92" value="&lt;div&gt;&lt;font style=&quot;font-size: 16px;&quot;&gt;0.2&lt;/font&gt;&lt;/div&gt;" style="edgeLabel;html=1;align=center;verticalAlign=middle;resizable=0;points=[];" vertex="1" connectable="0" parent="3BKQBrjDXL64x6oOyKod-45">
          <mxGeometry x="-0.5838" relative="1" as="geometry">
            <mxPoint x="-4" as="offset" />
          </mxGeometry>
        </mxCell>
        <mxCell id="3BKQBrjDXL64x6oOyKod-47" value="" style="endArrow=none;html=1;rounded=0;strokeWidth=2;" edge="1" parent="1">
          <mxGeometry width="50" height="50" relative="1" as="geometry">
            <mxPoint x="20" y="297.89473684210526" as="sourcePoint" />
            <mxPoint x="51.515151515151516" y="297.9868421052632" as="targetPoint" />
          </mxGeometry>
        </mxCell>
        <mxCell id="3BKQBrjDXL64x6oOyKod-90" value="&lt;font style=&quot;font-size: 16px;&quot;&gt;0.1&lt;/font&gt;" style="edgeLabel;html=1;align=center;verticalAlign=middle;resizable=0;points=[];" vertex="1" connectable="0" parent="3BKQBrjDXL64x6oOyKod-47">
          <mxGeometry x="-0.5568" relative="1" as="geometry">
            <mxPoint x="-4" as="offset" />
          </mxGeometry>
        </mxCell>
        <mxCell id="3BKQBrjDXL64x6oOyKod-49" value="" style="endArrow=none;html=1;rounded=0;strokeWidth=2;" edge="1" parent="1">
          <mxGeometry width="50" height="50" relative="1" as="geometry">
            <mxPoint x="20" y="334.7368421052632" as="sourcePoint" />
            <mxPoint x="51.515151515151516" y="334.7368421052632" as="targetPoint" />
          </mxGeometry>
        </mxCell>
        <mxCell id="3BKQBrjDXL64x6oOyKod-91" value="&lt;font style=&quot;font-size: 16px;&quot;&gt;0.0&lt;/font&gt;" style="edgeLabel;html=1;align=center;verticalAlign=middle;resizable=0;points=[];" vertex="1" connectable="0" parent="3BKQBrjDXL64x6oOyKod-49">
          <mxGeometry x="-0.5297" relative="1" as="geometry">
            <mxPoint x="-5" as="offset" />
          </mxGeometry>
        </mxCell>
        <mxCell id="3BKQBrjDXL64x6oOyKod-55" value="" style="ellipse;whiteSpace=wrap;html=1;aspect=fixed;fillColor=#647687;fontColor=#ffffff;strokeColor=#314354;" vertex="1" parent="1">
          <mxGeometry x="508.48484848484856" y="187.3684210526316" width="15.281850765721735" height="15.281850765721735" as="geometry" />
        </mxCell>
        <mxCell id="3BKQBrjDXL64x6oOyKod-56" value="" style="ellipse;whiteSpace=wrap;html=1;aspect=fixed;fillColor=#647687;fontColor=#ffffff;strokeColor=#314354;" vertex="1" parent="1">
          <mxGeometry x="540" y="187.3684210526316" width="15.281850765721735" height="15.281850765721735" as="geometry" />
        </mxCell>
        <mxCell id="3BKQBrjDXL64x6oOyKod-58" value="" style="ellipse;whiteSpace=wrap;html=1;aspect=fixed;fillColor=#647687;fontColor=#ffffff;strokeColor=#314354;" vertex="1" parent="1">
          <mxGeometry x="571.5151515151515" y="187.3684210526316" width="15.281850765721735" height="15.281850765721735" as="geometry" />
        </mxCell>
        <mxCell id="3BKQBrjDXL64x6oOyKod-59" value="" style="ellipse;whiteSpace=wrap;html=1;aspect=fixed;fillColor=#647687;fontColor=#ffffff;strokeColor=#314354;" vertex="1" parent="1">
          <mxGeometry x="603.0303030303031" y="187.3684210526316" width="15.281850765721735" height="15.281850765721735" as="geometry" />
        </mxCell>
        <mxCell id="3BKQBrjDXL64x6oOyKod-60" value="" style="endArrow=none;html=1;rounded=0;" edge="1" parent="1">
          <mxGeometry width="50" height="50" relative="1" as="geometry">
            <mxPoint x="524.2424242424242" y="196.43157894736842" as="sourcePoint" />
            <mxPoint x="540" y="196.43157894736842" as="targetPoint" />
          </mxGeometry>
        </mxCell>
        <mxCell id="3BKQBrjDXL64x6oOyKod-61" value="" style="endArrow=none;html=1;rounded=0;" edge="1" parent="1">
          <mxGeometry width="50" height="50" relative="1" as="geometry">
            <mxPoint x="555.7575757575758" y="196.43157894736848" as="sourcePoint" />
            <mxPoint x="571.5151515151515" y="196.43157894736848" as="targetPoint" />
          </mxGeometry>
        </mxCell>
        <mxCell id="3BKQBrjDXL64x6oOyKod-62" value="" style="endArrow=none;html=1;rounded=0;" edge="1" parent="1">
          <mxGeometry width="50" height="50" relative="1" as="geometry">
            <mxPoint x="587.2727272727274" y="196.43157894736848" as="sourcePoint" />
            <mxPoint x="603.0303030303031" y="196.43157894736848" as="targetPoint" />
          </mxGeometry>
        </mxCell>
        <mxCell id="3BKQBrjDXL64x6oOyKod-63" value="" style="ellipse;whiteSpace=wrap;html=1;aspect=fixed;fillColor=#647687;fontColor=#ffffff;strokeColor=#314354;" vertex="1" parent="1">
          <mxGeometry x="634.5454545454545" y="187.3684210526316" width="15.281850765721735" height="15.281850765721735" as="geometry" />
        </mxCell>
        <mxCell id="3BKQBrjDXL64x6oOyKod-64" value="" style="ellipse;whiteSpace=wrap;html=1;aspect=fixed;fillColor=#647687;fontColor=#ffffff;strokeColor=#314354;" vertex="1" parent="1">
          <mxGeometry x="666.060606060606" y="187.3684210526316" width="15.281850765721735" height="15.281850765721735" as="geometry" />
        </mxCell>
        <mxCell id="3BKQBrjDXL64x6oOyKod-65" value="" style="ellipse;whiteSpace=wrap;html=1;aspect=fixed;fillColor=#647687;fontColor=#ffffff;strokeColor=#314354;" vertex="1" parent="1">
          <mxGeometry x="697.5757575757576" y="187.3684210526316" width="15.281850765721735" height="15.281850765721735" as="geometry" />
        </mxCell>
        <mxCell id="3BKQBrjDXL64x6oOyKod-66" value="" style="ellipse;whiteSpace=wrap;html=1;aspect=fixed;fillColor=#647687;fontColor=#ffffff;strokeColor=#314354;" vertex="1" parent="1">
          <mxGeometry x="729.0909090909091" y="187.3684210526316" width="15.281850765721735" height="15.281850765721735" as="geometry" />
        </mxCell>
        <mxCell id="3BKQBrjDXL64x6oOyKod-67" value="" style="endArrow=none;html=1;rounded=0;" edge="1" parent="1">
          <mxGeometry width="50" height="50" relative="1" as="geometry">
            <mxPoint x="650.3030303030304" y="196.43157894736848" as="sourcePoint" />
            <mxPoint x="666.060606060606" y="196.43157894736848" as="targetPoint" />
          </mxGeometry>
        </mxCell>
        <mxCell id="3BKQBrjDXL64x6oOyKod-68" value="" style="endArrow=none;html=1;rounded=0;" edge="1" parent="1">
          <mxGeometry width="50" height="50" relative="1" as="geometry">
            <mxPoint x="681.8181818181819" y="196.43157894736848" as="sourcePoint" />
            <mxPoint x="697.5757575757576" y="196.43157894736848" as="targetPoint" />
          </mxGeometry>
        </mxCell>
        <mxCell id="3BKQBrjDXL64x6oOyKod-69" value="" style="endArrow=none;html=1;rounded=0;" edge="1" parent="1">
          <mxGeometry width="50" height="50" relative="1" as="geometry">
            <mxPoint x="713.3333333333334" y="196.43157894736848" as="sourcePoint" />
            <mxPoint x="729.0909090909091" y="196.43157894736848" as="targetPoint" />
          </mxGeometry>
        </mxCell>
        <mxCell id="3BKQBrjDXL64x6oOyKod-70" value="" style="ellipse;whiteSpace=wrap;html=1;aspect=fixed;fillColor=#647687;fontColor=#ffffff;strokeColor=#314354;" vertex="1" parent="1">
          <mxGeometry x="760.6060606060606" y="187.3684210526316" width="15.281850765721735" height="15.281850765721735" as="geometry" />
        </mxCell>
        <mxCell id="3BKQBrjDXL64x6oOyKod-72" value="" style="endArrow=none;html=1;rounded=0;" edge="1" parent="1">
          <mxGeometry width="50" height="50" relative="1" as="geometry">
            <mxPoint x="618.7878787878789" y="196.45000000000005" as="sourcePoint" />
            <mxPoint x="634.5454545454545" y="196.45000000000005" as="targetPoint" />
          </mxGeometry>
        </mxCell>
        <mxCell id="3BKQBrjDXL64x6oOyKod-73" value="" style="endArrow=none;html=1;rounded=0;" edge="1" parent="1">
          <mxGeometry width="50" height="50" relative="1" as="geometry">
            <mxPoint x="744.848484848485" y="196.45000000000005" as="sourcePoint" />
            <mxPoint x="760.6060606060606" y="196.45000000000005" as="targetPoint" />
          </mxGeometry>
        </mxCell>
        <mxCell id="3BKQBrjDXL64x6oOyKod-74" value="" style="endArrow=none;dashed=1;html=1;rounded=0;" edge="1" parent="1">
          <mxGeometry width="50" height="50" relative="1" as="geometry">
            <mxPoint x="776.3636363636365" y="196.45000000000005" as="sourcePoint" />
            <mxPoint x="792.1212121212121" y="196.45000000000005" as="targetPoint" />
          </mxGeometry>
        </mxCell>
        <mxCell id="3BKQBrjDXL64x6oOyKod-75" value="" style="endArrow=none;html=1;rounded=0;exitX=0.5;exitY=0;exitDx=0;exitDy=0;entryX=0.5;entryY=0;entryDx=0;entryDy=0;curved=1;" edge="1" parent="1" source="3BKQBrjDXL64x6oOyKod-55" target="3BKQBrjDXL64x6oOyKod-58">
          <mxGeometry width="50" height="50" relative="1" as="geometry">
            <mxPoint x="524.2424242424242" y="168.94736842105263" as="sourcePoint" />
            <mxPoint x="571.5151515151515" y="168.94736842105263" as="targetPoint" />
            <Array as="points">
              <mxPoint x="524.2424242424242" y="168.94736842105263" />
              <mxPoint x="540" y="150.5263157894737" />
              <mxPoint x="555.7575757575758" y="150.5263157894737" />
              <mxPoint x="571.5151515151515" y="168.94736842105263" />
            </Array>
          </mxGeometry>
        </mxCell>
        <mxCell id="3BKQBrjDXL64x6oOyKod-76" value="" style="endArrow=none;html=1;rounded=0;exitX=0.5;exitY=0;exitDx=0;exitDy=0;entryX=0.5;entryY=0;entryDx=0;entryDy=0;curved=1;" edge="1" parent="1" source="3BKQBrjDXL64x6oOyKod-59" target="3BKQBrjDXL64x6oOyKod-64">
          <mxGeometry width="50" height="50" relative="1" as="geometry">
            <mxPoint x="610.909090909091" y="187.3684210526316" as="sourcePoint" />
            <mxPoint x="673.939393939394" y="187.3684210526316" as="targetPoint" />
            <Array as="points">
              <mxPoint x="618.7878787878789" y="168.94736842105263" />
              <mxPoint x="634.5454545454545" y="150.5263157894737" />
              <mxPoint x="650.3030303030304" y="150.5263157894737" />
              <mxPoint x="666.060606060606" y="168.94736842105263" />
            </Array>
          </mxGeometry>
        </mxCell>
        <mxCell id="3BKQBrjDXL64x6oOyKod-77" value="" style="endArrow=none;html=1;rounded=0;exitX=0.5;exitY=0;exitDx=0;exitDy=0;entryX=0.5;entryY=0;entryDx=0;entryDy=0;curved=1;" edge="1" parent="1">
          <mxGeometry width="50" height="50" relative="1" as="geometry">
            <mxPoint x="705.4545454545456" y="187.3684210526316" as="sourcePoint" />
            <mxPoint x="768.4848484848485" y="187.3684210526316" as="targetPoint" />
            <Array as="points">
              <mxPoint x="713.3333333333334" y="168.94736842105263" />
              <mxPoint x="729.0909090909091" y="150.5263157894737" />
              <mxPoint x="744.848484848485" y="150.5263157894737" />
              <mxPoint x="760.6060606060606" y="168.94736842105263" />
            </Array>
          </mxGeometry>
        </mxCell>
        <mxCell id="3BKQBrjDXL64x6oOyKod-78" value="" style="endArrow=none;html=1;rounded=0;exitX=0.5;exitY=0;exitDx=0;exitDy=0;entryX=0.5;entryY=0;entryDx=0;entryDy=0;curved=1;" edge="1" parent="1" source="3BKQBrjDXL64x6oOyKod-55" target="3BKQBrjDXL64x6oOyKod-59">
          <mxGeometry width="50" height="50" relative="1" as="geometry">
            <mxPoint x="524.2424242424242" y="132.10526315789474" as="sourcePoint" />
            <mxPoint x="603.0303030303031" y="40" as="targetPoint" />
            <Array as="points">
              <mxPoint x="555.7575757575758" y="58.421052631578945" />
            </Array>
          </mxGeometry>
        </mxCell>
        <mxCell id="3BKQBrjDXL64x6oOyKod-79" value="" style="endArrow=none;html=1;rounded=0;exitX=0.5;exitY=0;exitDx=0;exitDy=0;entryX=0.5;entryY=0;entryDx=0;entryDy=0;curved=1;" edge="1" parent="1" source="3BKQBrjDXL64x6oOyKod-59" target="3BKQBrjDXL64x6oOyKod-65">
          <mxGeometry width="50" height="50" relative="1" as="geometry">
            <mxPoint x="603.0303030303031" y="297.89473684210526" as="sourcePoint" />
            <mxPoint x="697.5757575757576" y="297.89473684210526" as="targetPoint" />
            <Array as="points">
              <mxPoint x="650.3030303030304" y="58.421052631578945" />
            </Array>
          </mxGeometry>
        </mxCell>
        <mxCell id="3BKQBrjDXL64x6oOyKod-81" value="" style="endArrow=none;dashed=1;html=1;rounded=0;exitX=0.5;exitY=0;exitDx=0;exitDy=0;curved=1;entryX=0.5;entryY=0;entryDx=0;entryDy=0;" edge="1" parent="1" source="3BKQBrjDXL64x6oOyKod-65">
          <mxGeometry width="50" height="50" relative="1" as="geometry">
            <mxPoint x="697.5757575757576" y="187.3684210526316" as="sourcePoint" />
            <mxPoint x="800" y="187.3684210526316" as="targetPoint" />
            <Array as="points">
              <mxPoint x="736.969696969697" y="58.421052631578945" />
            </Array>
          </mxGeometry>
        </mxCell>
        <mxCell id="3BKQBrjDXL64x6oOyKod-98" value="&lt;font style=&quot;font-size: 16px;&quot;&gt;1&lt;/font&gt;" style="text;html=1;align=center;verticalAlign=middle;resizable=0;points=[];autosize=1;strokeColor=none;fillColor=none;" vertex="1" parent="1">
          <mxGeometry x="60.155151515151516" y="334.7368421052632" width="30" height="30" as="geometry" />
        </mxCell>
        <mxCell id="3BKQBrjDXL64x6oOyKod-99" value="&lt;font style=&quot;font-size: 16px;&quot;&gt;2&lt;/font&gt;" style="text;html=1;align=center;verticalAlign=middle;resizable=0;points=[];autosize=1;strokeColor=none;fillColor=none;" vertex="1" parent="1">
          <mxGeometry x="91.67030303030303" y="334.7368421052632" width="30" height="30" as="geometry" />
        </mxCell>
        <mxCell id="3BKQBrjDXL64x6oOyKod-100" value="&lt;font style=&quot;font-size: 16px;&quot;&gt;3&lt;/font&gt;" style="text;html=1;align=center;verticalAlign=middle;resizable=0;points=[];autosize=1;strokeColor=none;fillColor=none;" vertex="1" parent="1">
          <mxGeometry x="123.18545454545456" y="334.7368421052632" width="30" height="30" as="geometry" />
        </mxCell>
        <mxCell id="3BKQBrjDXL64x6oOyKod-101" value="&lt;font style=&quot;font-size: 16px;&quot;&gt;4&lt;/font&gt;" style="text;html=1;align=center;verticalAlign=middle;resizable=0;points=[];autosize=1;strokeColor=none;fillColor=none;" vertex="1" parent="1">
          <mxGeometry x="154.70060606060605" y="334.7368421052632" width="30" height="30" as="geometry" />
        </mxCell>
        <mxCell id="3BKQBrjDXL64x6oOyKod-102" value="&lt;font style=&quot;font-size: 16px;&quot;&gt;5&lt;/font&gt;" style="text;html=1;align=center;verticalAlign=middle;resizable=0;points=[];autosize=1;strokeColor=none;fillColor=none;" vertex="1" parent="1">
          <mxGeometry x="186.2157575757576" y="334.7368421052632" width="30" height="30" as="geometry" />
        </mxCell>
        <mxCell id="3BKQBrjDXL64x6oOyKod-103" value="&lt;font style=&quot;font-size: 16px;&quot;&gt;6&lt;/font&gt;" style="text;html=1;align=center;verticalAlign=middle;resizable=0;points=[];autosize=1;strokeColor=none;fillColor=none;" vertex="1" parent="1">
          <mxGeometry x="217.7309090909091" y="334.7368421052632" width="30" height="30" as="geometry" />
        </mxCell>
        <mxCell id="3BKQBrjDXL64x6oOyKod-104" value="&lt;font style=&quot;font-size: 16px;&quot;&gt;7&lt;/font&gt;" style="text;html=1;align=center;verticalAlign=middle;resizable=0;points=[];autosize=1;strokeColor=none;fillColor=none;" vertex="1" parent="1">
          <mxGeometry x="249.2460606060606" y="334.7368421052632" width="30" height="30" as="geometry" />
        </mxCell>
        <mxCell id="3BKQBrjDXL64x6oOyKod-105" value="&lt;font style=&quot;font-size: 16px;&quot;&gt;8&lt;/font&gt;" style="text;html=1;align=center;verticalAlign=middle;resizable=0;points=[];autosize=1;strokeColor=none;fillColor=none;" vertex="1" parent="1">
          <mxGeometry x="280.7612121212121" y="334.7368421052632" width="30" height="30" as="geometry" />
        </mxCell>
        <mxCell id="3BKQBrjDXL64x6oOyKod-106" value="&lt;font style=&quot;font-size: 16px;&quot;&gt;9&lt;/font&gt;" style="text;html=1;align=center;verticalAlign=middle;resizable=0;points=[];autosize=1;strokeColor=none;fillColor=none;" vertex="1" parent="1">
          <mxGeometry x="312.27636363636367" y="334.7368421052632" width="30" height="30" as="geometry" />
        </mxCell>
        <mxCell id="3BKQBrjDXL64x6oOyKod-107" value="Node" style="text;html=1;align=center;verticalAlign=middle;resizable=0;points=[];autosize=1;strokeColor=none;fillColor=none;" vertex="1" parent="1">
          <mxGeometry x="350.90909090909093" y="334.7368421052632" width="50" height="30" as="geometry" />
        </mxCell>
        <mxCell id="3BKQBrjDXL64x6oOyKod-108" value="&lt;font style=&quot;font-size: 16px;&quot;&gt;1&lt;/font&gt;" style="text;html=1;align=center;verticalAlign=middle;resizable=0;points=[];autosize=1;strokeColor=none;fillColor=none;" vertex="1" parent="1">
          <mxGeometry x="501.1272727272727" y="196.57894736842107" width="30" height="30" as="geometry" />
        </mxCell>
        <mxCell id="3BKQBrjDXL64x6oOyKod-109" value="&lt;font style=&quot;font-size: 16px;&quot;&gt;2&lt;/font&gt;" style="text;html=1;align=center;verticalAlign=middle;resizable=0;points=[];autosize=1;strokeColor=none;fillColor=none;" vertex="1" parent="1">
          <mxGeometry x="532.6424242424242" y="196.57894736842107" width="30" height="30" as="geometry" />
        </mxCell>
        <mxCell id="3BKQBrjDXL64x6oOyKod-110" value="&lt;font style=&quot;font-size: 16px;&quot;&gt;3&lt;/font&gt;" style="text;html=1;align=center;verticalAlign=middle;resizable=0;points=[];autosize=1;strokeColor=none;fillColor=none;" vertex="1" parent="1">
          <mxGeometry x="564.1575757575757" y="196.57894736842107" width="30" height="30" as="geometry" />
        </mxCell>
        <mxCell id="3BKQBrjDXL64x6oOyKod-111" value="&lt;font style=&quot;font-size: 16px;&quot;&gt;4&lt;/font&gt;" style="text;html=1;align=center;verticalAlign=middle;resizable=0;points=[];autosize=1;strokeColor=none;fillColor=none;" vertex="1" parent="1">
          <mxGeometry x="595.6727272727273" y="196.57894736842107" width="30" height="30" as="geometry" />
        </mxCell>
        <mxCell id="3BKQBrjDXL64x6oOyKod-112" value="&lt;font style=&quot;font-size: 16px;&quot;&gt;5&lt;/font&gt;" style="text;html=1;align=center;verticalAlign=middle;resizable=0;points=[];autosize=1;strokeColor=none;fillColor=none;" vertex="1" parent="1">
          <mxGeometry x="627.1878787878788" y="196.57894736842107" width="30" height="30" as="geometry" />
        </mxCell>
        <mxCell id="3BKQBrjDXL64x6oOyKod-113" value="&lt;font style=&quot;font-size: 16px;&quot;&gt;6&lt;/font&gt;" style="text;html=1;align=center;verticalAlign=middle;resizable=0;points=[];autosize=1;strokeColor=none;fillColor=none;" vertex="1" parent="1">
          <mxGeometry x="658.7030303030303" y="196.57894736842107" width="30" height="30" as="geometry" />
        </mxCell>
        <mxCell id="3BKQBrjDXL64x6oOyKod-114" value="&lt;font style=&quot;font-size: 16px;&quot;&gt;7&lt;/font&gt;" style="text;html=1;align=center;verticalAlign=middle;resizable=0;points=[];autosize=1;strokeColor=none;fillColor=none;" vertex="1" parent="1">
          <mxGeometry x="690.2124242424243" y="196.57894736842107" width="30" height="30" as="geometry" />
        </mxCell>
        <mxCell id="3BKQBrjDXL64x6oOyKod-115" value="&lt;font style=&quot;font-size: 16px;&quot;&gt;8&lt;/font&gt;" style="text;html=1;align=center;verticalAlign=middle;resizable=0;points=[];autosize=1;strokeColor=none;fillColor=none;" vertex="1" parent="1">
          <mxGeometry x="721.7333333333333" y="196.57894736842107" width="30" height="30" as="geometry" />
        </mxCell>
        <mxCell id="3BKQBrjDXL64x6oOyKod-116" value="&lt;font style=&quot;font-size: 16px;&quot;&gt;9&lt;/font&gt;" style="text;html=1;align=center;verticalAlign=middle;resizable=0;points=[];autosize=1;strokeColor=none;fillColor=none;" vertex="1" parent="1">
          <mxGeometry x="753.248484848485" y="196.57894736842107" width="30" height="30" as="geometry" />
        </mxCell>
        <mxCell id="3BKQBrjDXL64x6oOyKod-118" value="" style="shape=flexArrow;endArrow=classic;html=1;rounded=0;strokeColor=default;fillColor=#000000;" edge="1" parent="1">
          <mxGeometry width="50" height="50" relative="1" as="geometry">
            <mxPoint x="398.18181818181824" y="205.78947368421055" as="sourcePoint" />
            <mxPoint x="476.969696969697" y="205.78947368421055" as="targetPoint" />
          </mxGeometry>
        </mxCell>
      </root>
    </mxGraphModel>
  </diagram>
</mxfile>
